<?xml version="1.0" encoding="utf-8"?>
<!-- Generator: Adobe Illustrator 23.1.0, SVG Export Plug-In . SVG Version: 6.00 Build 0)  -->
<svg version="1.1" id="Layer_1" xmlns="http://www.w3.org/2000/svg" xmlns:xlink="http://www.w3.org/1999/xlink" x="0px" y="0px"
	 viewBox="0 0 191 36" style="enable-background:new 0 0 191 36;" xml:space="preserve">
<style type="text/css">
	.st0{clip-path:url(#SVGID_2_);}
	.st1{fill:#FFFFFF;}
</style>
<g>
	<defs>
		<rect id="SVGID_1_" width="190.9" height="36"/>
	</defs>
	<clipPath id="SVGID_2_">
		<use xlink:href="#SVGID_1_"  style="overflow:visible;"/>
	</clipPath>
	<g class="st0">
		<path class="st1" d="M51.1,26v6.8h-4.3V10.5h4.3v1.1c1.2-0.8,2.7-1.3,4.3-1.3c4.9,0,8.5,3.9,8.5,8.5c0,4.6-3.6,8.5-8.5,8.5
			C53.8,27.3,52.3,26.8,51.1,26z M51.1,16.7v3.9c0.7,1.5,2.2,2.5,4,2.5c2.5,0,4.5-1.9,4.5-4.4c0-2.5-1.9-4.4-4.5-4.4
			C53.4,14.4,51.9,15.3,51.1,16.7z"/>
		<path class="st1" d="M66.2,6c0-1.4,1-2.5,2.4-2.5s2.5,1.1,2.5,2.5c0,1.4-1.1,2.5-2.5,2.5S66.2,7.4,66.2,6z M66.5,10.5h4.4v16.5
			h-4.4V10.5z"/>
		<path class="st1" d="M73.4,18.7c0-4.5,3.6-8.4,8.5-8.4c1.6,0,3.1,0.4,4.4,1.1v-0.9h4.3v15.6c0,4.3-3.7,6.6-8.4,6.6
			c-3.1,0-6-0.9-7.9-2.4l1.8-3.1c1.6,1.1,3.7,1.8,6.1,1.8c3,0,3.9-1.2,4.1-3.1c-1.3,0.8-2.8,1.3-4.3,1.3
			C76.9,27.2,73.4,23.5,73.4,18.7z M86.3,20.6v-3.7c-0.7-1.6-2.3-2.6-4.1-2.6c-2.5,0-4.5,2-4.5,4.4c0,2.6,1.9,4.3,4.5,4.3
			C84,23.1,85.5,22.1,86.3,20.6z"/>
		<path class="st1" d="M93.1,18.7c0-4.5,3.6-8.4,8.5-8.4c1.6,0,3.1,0.4,4.4,1.1v-0.9h4.3v15.6c0,4.3-3.7,6.6-8.4,6.6
			c-3.1,0-6-0.9-7.9-2.4l1.8-3.1c1.6,1.1,3.7,1.8,6.1,1.8c3,0,3.9-1.2,4.1-3.1c-1.3,0.8-2.8,1.3-4.3,1.3
			C96.6,27.2,93.1,23.5,93.1,18.7z M106,20.6v-3.7c-0.7-1.6-2.3-2.6-4.1-2.6c-2.5,0-4.5,2-4.5,4.4c0,2.6,1.9,4.3,4.5,4.3
			C103.7,23.1,105.2,22.1,106,20.6z"/>
		<path class="st1" d="M116.5,10.5l4.3,11l4.5-11h4.5l-9.5,22.3h-4.1l2.4-6l-7-16.4H116.5z"/>
		<path class="st1" d="M129,10.5h4.6l4.2,11.2l4.2-11.2h4.5l-6.7,16.5h-4.3L129,10.5z"/>
		<path class="st1" d="M146.9,18.6c0-4.7,3.3-8.5,8.5-8.5c4.8,0,8.5,3.6,8.6,8.4c0,0.4,0,0.8,0,1.2h-13c0.1,2.3,2.4,3.9,4.7,3.9
			c2,0,3.1-0.5,4.5-1.7l2.4,2.5c-1.9,2-3.8,2.9-6.8,2.9C150.1,27.4,146.9,23.2,146.9,18.6z M151.2,16.7h8.3
			c-0.4-1.6-1.9-2.9-4.2-2.9C152.8,13.8,151.6,15.1,151.2,16.7z"/>
		<path class="st1" d="M164.9,25.3l2.1-3.4c1.9,1.2,4.1,2,6.4,2c2.2,0,3.3-0.5,3.3-1.5c0-0.6-0.5-1.1-1.6-1.3l-4.5-1
			c-3.3-0.7-4.9-2.3-4.9-4.9c0-2.8,2.3-5,7.1-5c2.9,0,5.5,0.8,7.3,1.9l-2,3.3c-1.5-0.8-3.4-1.6-5.4-1.6c-1.8,0-2.9,0.5-2.9,1.3
			c0,0.5,0.4,0.9,1.5,1.1l3.8,0.7c4.1,0.8,5.7,2.6,5.7,5.2c0,3.6-3.6,5.5-7.5,5.5C170.1,27.5,167.6,26.8,164.9,25.3z"/>
		<path class="st1" d="M181.6,10.5h2.4V6l4.3-2.8v7.3h2.5v3.7h-2.5V27h-4.3V14.3h-2.4V10.5z"/>
		<path class="st1" d="M36,16.6c-0.1-1.1-0.2-2.1-0.5-3.1c-1.2-4.5-3.8-8.1-7.8-10.7c-2.6-1.6-5.4-2.5-8.4-2.8
			c-1.3-0.1-2.5,0-3.7,0.1c-1.3,0.2-2.6,0.5-3.8,0.9c-5.4,2-9.6,6.5-11.2,12.1c-0.3,1.2-0.5,2.4-0.6,3.7c0,0.7,0,1.3,0,1.9v15.7
			C0,35.3,0.7,36,1.5,36h6.1c0.8,0,1.5-0.6,1.5-1.4c0-0.2,0.1-0.3,0.1-0.5v-0.3c0,0,0,0,0-0.1v0c0,0,0.1,0,0.1,0
			c2.3,1.3,4.7,2,7.4,2.2c1,0.1,2.1,0.1,3.1,0c0.9-0.1,1.8-0.2,2.8-0.5c3.9-1,7.2-3.1,9.7-6.3c2.2-2.8,3.4-5.9,3.8-9.4
			C36.1,18.7,36.1,17.7,36,16.6z M21.2,26.6c0,0.1-0.1,0.2-0.2,0.2h-6c-0.1,0-0.2-0.1-0.2-0.2v0v-0.2c0-0.3,0-0.5,0.1-0.8
			c0-0.1,0.1-0.2,0.1-0.3c0-0.1,0.1-0.2,0.1-0.3c0-0.1,0.1-0.2,0.2-0.3c0,0,0-0.1,0.1-0.1c0-0.1,0.1-0.2,0.2-0.2
			c0.1-0.1,0.2-0.2,0.2-0.2c0.3-0.3,0.8-0.6,1.3-0.8c-0.6-0.3-1.1-1.1-1.1-1.9c0-1.2,1-2.1,2.1-2.1c0.6,0,1.1,0.2,1.5,0.6
			c0.4,0.4,0.6,0.9,0.6,1.5c0,0.8-0.5,1.5-1.1,1.9c1.3,0.4,2.2,1.6,2.2,3.1C21.3,26.4,21.2,26.6,21.2,26.6z M31.6,13.6H4.5
			c-0.2,0-0.4-0.2-0.3-0.4c2-5.7,7.5-9.8,13.8-9.8s11.8,4.1,13.8,9.8C31.9,13.4,31.8,13.6,31.6,13.6z"/>
	</g>
</g>
</svg>
